# xmcd
#
# Track frame offsets:
#	150
#	15630
#	33987
#	51835
#	68854
#	86812
#	102782
#	121144
#	146610
#	164408
#	181066
#	196951
#	210596
#	227982
#	242760
#
# Disc length: 3474 seconds
#
# Revision: 0
# Processed by: cddbd v1.5.2PL0 Copyright (c) Steve Scherf et al.
# Submitted via: audiograbber 1.83.01
#
DISCID=ca0d900f
DTITLE=CHARTBUSTER - 60368 OCT. '07 HITS OF THE MONTH
DYEAR=2007
DGENRE=KARAOKE
TTITLE0=TRACE ADKINS - I GOT MY GAME ON
TTITLE1=GEORGE STRAIT - HOW 'BOUT THEM COWGIRLS
TTITLE2=CARRIE UNDERWOOD - SO SMALL
TTITLE3=RASCAL FLATTS - REVOLUTION
TTITLE4=ALAN JACKSON - IT'S ALL ABOUT HIM
TTITLE5=TAYLOR SWIFT - OUR SONG
TTITLE6=BIG and RICH - BETWEEN RAISING HELL AND AMAZING GRACE
TTITLE7=KEITH URBAN - EVERYBODY
TTITLE8=BOMSHEL - POWER OF ONE
TTITLE9=RODNEY ATKINS - ANGEL'S HANDS
TTITLE10=JASON ALDEAN - LAUGHED UNTIL WE CRIED
TTITLE11=COWBOY CRUSH - MISS DIFFICULT
TTITLE12=COLE DEGGS and THE LONESOME - GIRL NEXT DOOR
TTITLE13=BUCKY COVINGTON - IT'S GOOD TO BE US
TTITLE14=MUDHOG - I DON'T KNOW IF I'M COMING HOME
EXTD=
EXTT0=
EXTT1=
EXTT2=
EXTT3=
EXTT4=
EXTT5=
EXTT6=
EXTT7=
EXTT8=
EXTT9=
EXTT10=
EXTT11=
EXTT12=
EXTT13=
EXTT14=
PLAYORDER=
